<?xml version="1.0" encoding="UTF-8" standalone="no"?>
<!DOCTYPE svg PUBLIC "-//W3C//DTD SVG 1.1//EN"
 "http://www.w3.org/Graphics/SVG/1.1/DTD/svg11.dtd">
<!-- Generated by graphviz version 2.38.0 (20140413.2041)
 -->
<!-- Title: dependency&#45;cruiser output Pages: 1 -->
<svg width="239pt" height="264pt"
 viewBox="0.00 0.00 239.00 264.00" xmlns="http://www.w3.org/2000/svg" xmlns:xlink="http://www.w3.org/1999/xlink">
<g id="graph0" class="graph" transform="scale(1 1) rotate(0) translate(4 260)">
<title>dependency&#45;cruiser output</title>
<polygon fill="white" stroke="none" points="-4,4 -4,-260 235,-260 235,4 -4,4"/>
<g id="clust1" class="cluster"><title>cluster_src</title>
<path fill="#ffffff" stroke="black" stroke-width="2" d="M20,-8C20,-8 211,-8 211,-8 217,-8 223,-14 223,-20 223,-20 223,-236 223,-236 223,-242 217,-248 211,-248 211,-248 20,-248 20,-248 14,-248 8,-242 8,-236 8,-236 8,-20 8,-20 8,-14 14,-8 20,-8"/>
<text text-anchor="middle" x="115.5" y="-236.8" font-family="Helvetica,sans-Serif" font-weight="bold" font-size="9.00">src</text>
</g>
<g id="clust2" class="cluster"><title>cluster_src/api</title>
<path fill="#ffffff" stroke="black" stroke-width="2" d="M28,-102C28,-102 141,-102 141,-102 147,-102 153,-108 153,-114 153,-114 153,-210 153,-210 153,-216 147,-222 141,-222 141,-222 28,-222 28,-222 22,-222 16,-216 16,-210 16,-210 16,-114 16,-114 16,-108 22,-102 28,-102"/>
<text text-anchor="middle" x="84.5" y="-210.8" font-family="Helvetica,sans-Serif" font-weight="bold" font-size="9.00">api</text>
</g>
<g id="clust3" class="cluster"><title>cluster_src/api/web</title>
<path fill="#ffffff" stroke="black" stroke-width="2" d="M36,-110C36,-110 133,-110 133,-110 139,-110 145,-116 145,-122 145,-122 145,-184 145,-184 145,-190 139,-196 133,-196 133,-196 36,-196 36,-196 30,-196 24,-190 24,-184 24,-184 24,-122 24,-122 24,-116 30,-110 36,-110"/>
<text text-anchor="middle" x="84.5" y="-184.8" font-family="Helvetica,sans-Serif" font-weight="bold" font-size="9.00">web</text>
</g>
<g id="clust4" class="cluster"><title>cluster_src/api/web/health</title>
<path fill="#ffffff" stroke="black" stroke-width="2" d="M44,-118C44,-118 125,-118 125,-118 131,-118 137,-124 137,-130 137,-130 137,-158 137,-158 137,-164 131,-170 125,-170 125,-170 44,-170 44,-170 38,-170 32,-164 32,-158 32,-158 32,-130 32,-130 32,-124 38,-118 44,-118"/>
<text text-anchor="middle" x="84.5" y="-158.8" font-family="Helvetica,sans-Serif" font-weight="bold" font-size="9.00">health</text>
</g>
<!-- src/api/web/health/healthcheckApi.js -->
<g id="node1" class="node"><title>src/api/web/health/healthcheckApi.js</title>
<g id="a_node1"><a xlink:href="src/api/web/health/healthcheckApi.js" xlink:title="healthcheckApi.js">
<path fill="#ccffcc" stroke="black" d="M123,-144C123,-144 46,-144 46,-144 43,-144 40,-141 40,-138 40,-138 40,-132 40,-132 40,-129 43,-126 46,-126 46,-126 123,-126 123,-126 126,-126 129,-129 129,-132 129,-132 129,-138 129,-138 129,-141 126,-144 123,-144"/>
<text text-anchor="middle" x="84.5" y="-132.8" font-family="Helvetica,sans-Serif" font-size="9.00">healthcheckApi.js</text>
</a>
</g>
</g>
<!-- src/calculator.js -->
<g id="node2" class="node"><title>src/calculator.js</title>
<g id="a_node2"><a xlink:href="src/calculator.js" xlink:title="calculator.js">
<path fill="#ccffcc" stroke="black" d="M111.5,-94C111.5,-94 57.5,-94 57.5,-94 54.5,-94 51.5,-91 51.5,-88 51.5,-88 51.5,-82 51.5,-82 51.5,-79 54.5,-76 57.5,-76 57.5,-76 111.5,-76 111.5,-76 114.5,-76 117.5,-79 117.5,-82 117.5,-82 117.5,-88 117.5,-88 117.5,-91 114.5,-94 111.5,-94"/>
<text text-anchor="middle" x="84.5" y="-82.8" font-family="Helvetica,sans-Serif" font-size="9.00">calculator.js</text>
</a>
</g>
</g>
<!-- src/server.js -->
<g id="node3" class="node"><title>src/server.js</title>
<g id="a_node3"><a xlink:href="src/server.js" xlink:title="server.js">
<path fill="#ffffcc" stroke="black" d="M105.5,-64C105.5,-64 63.5,-64 63.5,-64 60.5,-64 57.5,-61 57.5,-58 57.5,-58 57.5,-52 57.5,-52 57.5,-49 60.5,-46 63.5,-46 63.5,-46 105.5,-46 105.5,-46 108.5,-46 111.5,-49 111.5,-52 111.5,-52 111.5,-58 111.5,-58 111.5,-61 108.5,-64 105.5,-64"/>
<text text-anchor="middle" x="84.5" y="-52.8" font-family="Helvetica,sans-Serif" font-size="9.00">server.js</text>
</a>
</g>
</g>
<!-- src/sum.js -->
<g id="node4" class="node"><title>src/sum.js</title>
<g id="a_node4"><a xlink:href="src/sum.js" xlink:title="sum.js">
<path fill="#ffffcc" stroke="black" d="M209,-64C209,-64 167,-64 167,-64 164,-64 161,-61 161,-58 161,-58 161,-52 161,-52 161,-49 164,-46 167,-46 167,-46 209,-46 209,-46 212,-46 215,-49 215,-52 215,-52 215,-58 215,-58 215,-61 212,-64 209,-64"/>
<text text-anchor="middle" x="188" y="-52.8" font-family="Helvetica,sans-Serif" font-size="9.00">sum.js</text>
</a>
</g>
</g>
<!-- src/server.js&#45;&gt;src/sum.js -->
<g id="edge1" class="edge"><title>src/server.js&#45;&gt;src/sum.js</title>
<path fill="none" stroke="#000000" stroke-width="2" stroke-opacity="0.200000" d="M111.639,-55C124.78,-55 140.827,-55 154.731,-55"/>
<polygon fill="#000000" fill-opacity="0.200000" stroke="#000000" stroke-width="2" stroke-opacity="0.200000" points="154.95,-57.1001 160.95,-55 154.95,-52.9001 154.95,-57.1001"/>
</g>
<!-- src/temperature.js -->
<g id="node5" class="node"><title>src/temperature.js</title>
<g id="a_node5"><a xlink:href="src/temperature.js" xlink:title="temperature.js">
<path fill="#ccffcc" stroke="black" d="M117,-34C117,-34 52,-34 52,-34 49,-34 46,-31 46,-28 46,-28 46,-22 46,-22 46,-19 49,-16 52,-16 52,-16 117,-16 117,-16 120,-16 123,-19 123,-22 123,-22 123,-28 123,-28 123,-31 120,-34 117,-34"/>
<text text-anchor="middle" x="84.5" y="-22.8" font-family="Helvetica,sans-Serif" font-size="9.00">temperature.js</text>
</a>
</g>
</g>
</g>
</svg>
